# xmcd
#
# Track frame offsets: 
#        150
#        17407
#        37127
#        56485
#        77047
#        96208
#        116838
#        125104
#        145344
#        166531
#        183249
#        206484
#
# Disc length: 3035 seconds
#
# Revision: 0
# Processed by: cddbd v1.5.2PL0 Copyright (c) Steve Scherf et al.
# Submitted via: ExactAudioCopy v1.0b6
#
DISCID=a00bd90c
DTITLE=Dynamites - Burn it down
DYEAR=2009
DGENRE=Funk
TTITLE0=Burn it down
TTITLE1=If I had known
TTITLE2=Somebody's got it better
TTITLE3=Can't have enough
TTITLE4=Do the right thing
TTITLE5=I got love for you
TTITLE6=Treadneck
TTITLE7=Somebody stop me
TTITLE8=(It's a) sunny day
TTITLE9=The third degree
TTITLE10=If you don't mean it
TTITLE11=The real deal
EXTD=
EXTT0=
EXTT1=
EXTT2=
EXTT3=
EXTT4=
EXTT5=
EXTT6=
EXTT7=
EXTT8=
EXTT9=
EXTT10=
EXTT11=
PLAYORDER=
